<svg width="30" height="30" viewBox="0 0 30 30" fill="none" xmlns="http://www.w3.org/2000/svg">
<g id="Iconly/Bulk/Message">
<g id="Group">
<path id="Fill 1" opacity="0.4" d="M27.5 19.9252C27.5 23.4127 24.7 26.2377 21.2125 26.2502H21.2H8.8125C5.3375 26.2502 2.5 23.4377 2.5 19.9502V19.9377C2.5 19.9377 2.5075 14.4052 2.5175 11.6227C2.51875 11.1002 3.11875 10.8077 3.5275 11.1327C6.4975 13.489 11.8088 17.7852 11.875 17.8415C12.7625 18.5527 13.8875 18.954 15.0375 18.954C16.1875 18.954 17.3125 18.5527 18.2 17.8277C18.2663 17.784 23.4588 13.6165 26.4738 11.2215C26.8838 10.8952 27.4862 11.1877 27.4875 11.709C27.5 14.4702 27.5 19.9252 27.5 19.9252Z" fill="#D9D9D9"/>
<path id="Fill 4" d="M26.8451 7.09201C25.7626 5.05201 23.6326 3.74951 21.2876 3.74951H8.8126C6.4676 3.74951 4.3376 5.05201 3.2551 7.09201C3.0126 7.54826 3.1276 8.11701 3.53135 8.43951L12.8126 15.8633C13.4626 16.3883 14.2501 16.6495 15.0376 16.6495C15.0426 16.6495 15.0463 16.6495 15.0501 16.6495C15.0538 16.6495 15.0588 16.6495 15.0626 16.6495C15.8501 16.6495 16.6376 16.3883 17.2876 15.8633L26.5688 8.43951C26.9726 8.11701 27.0876 7.54826 26.8451 7.09201Z" fill="#D9D9D9"/>
</g>
</g>
</svg>
