<svg width="30" height="30" viewBox="0 0 30 30" fill="none" xmlns="http://www.w3.org/2000/svg">
<g id="Iconly/Bulk/Notification">
<g id="Notification">
<path id="Fill 1" d="M24.7119 14.5567C23.7988 13.4904 23.3838 12.5663 23.3838 10.9964V10.4627C23.3838 8.41692 22.913 7.09883 21.8893 5.78074C20.3116 3.73374 17.6555 2.5 15.0553 2.5H14.9447C12.3992 2.5 9.82633 3.67709 8.22124 5.641C7.14166 6.98553 6.61616 8.36027 6.61616 10.4627V10.9964C6.61616 12.5663 6.22855 13.4904 5.28811 14.5567C4.59613 15.3422 4.375 16.3519 4.375 17.4446C4.375 18.5386 4.73403 19.5747 5.45458 20.4169C6.39502 21.4266 7.72307 22.0712 9.07969 22.1832C11.0438 22.4073 13.0079 22.4916 15.0006 22.4916C16.9921 22.4916 18.9562 22.3506 20.9216 22.1832C22.2769 22.0712 23.605 21.4266 24.5454 20.4169C25.2647 19.5747 25.625 18.5386 25.625 17.4446C25.625 16.3519 25.4039 15.3422 24.7119 14.5567Z" fill="#D9D9D9"/>
<path id="Fill 4" opacity="0.4" d="M17.5107 24.0354C16.8858 23.902 13.0781 23.902 12.4532 24.0354C11.919 24.1588 11.3413 24.4459 11.3413 25.0753C11.3724 25.6758 11.7239 26.2058 12.2109 26.542L12.2097 26.5432C12.8396 27.0342 13.5787 27.3464 14.3527 27.4584C14.7652 27.5151 15.1851 27.5126 15.6124 27.4584C16.3852 27.3464 17.1243 27.0342 17.7542 26.5432L17.753 26.542C18.2399 26.2058 18.5915 25.6758 18.6226 25.0753C18.6226 24.4459 18.0449 24.1588 17.5107 24.0354Z" fill="#D9D9D9"/>
</g>
<circle id="Ellipse 3" cx="16" cy="3" r="3" fill="#09D3FF"/>
</g>
</svg>
