<svg width="30" height="30" viewBox="0 0 30 30" fill="none" xmlns="http://www.w3.org/2000/svg">
<g id="Iconly/Bulk/Wallet">
<g id="Wallet">
<path id="Fill 1" fill-rule="evenodd" clip-rule="evenodd" d="M27.4956 10.4689H22.2022C19.7389 10.4732 17.7433 12.4189 17.7389 14.8207C17.7356 17.2279 19.7333 19.1823 22.2022 19.1855H27.5V19.5679C27.5 23.767 24.9544 26.25 20.6467 26.25H9.35444C5.04556 26.25 2.5 23.767 2.5 19.5679V10.4223C2.5 6.22328 5.04556 3.75 9.35444 3.75H20.6422C24.95 3.75 27.4956 6.22328 27.4956 10.4223V10.4689ZM8.42444 10.4592H15.4744H15.4789H15.4878C16.0156 10.457 16.4422 10.0377 16.44 9.52206C16.4378 9.00748 16.0067 8.59147 15.4789 8.59364H8.42444C7.9 8.5958 7.47444 9.01073 7.47222 9.52315C7.47 10.0377 7.89667 10.457 8.42444 10.4592Z" fill="#D9D9D9"/>
<path id="Fill 4" opacity="0.4" d="M20.0468 15.3708C20.3082 16.5598 21.3506 17.3963 22.5407 17.3746H26.6031C27.0983 17.3746 27.5 16.9645 27.5 16.4576V13.2931C27.4989 12.7873 27.0983 12.3761 26.6031 12.375H22.4451C21.0913 12.3794 19.9979 13.5031 20 14.8878C20 15.0499 20.0159 15.212 20.0468 15.3708Z" fill="#D9D9D9"/>
<circle id="Oval" cx="22.5" cy="14.875" r="1.25" fill="#D9D9D9"/>
</g>
</g>
</svg>
